<?xml version="1.0" encoding="UTF-8" standalone="no"?>
<!DOCTYPE svg PUBLIC "-//W3C//DTD SVG 1.1//EN" "http://www.w3.org/Graphics/SVG/1.1/DTD/svg11.dtd">
<svg xmlns="http://www.w3.org/2000/svg" version="1.1" viewBox="0.00 0.00 512.00 512.00">
<path fill="#000000" d="
  M 276.95 169.25
  Q 283.58 145.10 303.08 130.56
  Q 321.11 117.12 345.48 116.78
  C 350.96 116.71 355.35 119.93 354.86 125.77
  C 354.42 131.00 350.28 133.03 345.41 132.93
  Q 328.76 132.60 314.68 141.93
  Q 296.63 153.90 291.61 176.38
  Q 291.47 176.99 292.05 177.24
  Q 317.84 188.42 345.93 194.64
  C 351.81 195.94 360.65 196.85 367.94 197.44
  Q 386.16 198.91 404.51 200.90
  C 435.73 204.30 474.49 213.46 479.40 251.32
  C 482.77 277.40 470.18 297.63 448.63 310.85
  Q 436.48 318.31 422.60 321.93
  Q 422.11 322.06 422.10 322.56
  Q 421.92 332.77 422.11 342.97
  Q 422.33 354.99 420.92 359.18
  C 416.86 371.27 406.37 379.08 393.63 379.06
  Q 259.30 378.90 121.98 379.06
  Q 114.34 379.07 110.05 377.64
  C 98.15 373.65 90.64 363.07 90.67 350.51
  Q 90.72 334.74 90.69 319.26
  A 2.11 2.07 22.4 0 0 90.05 317.76
  Q 71.46 299.66 56.34 281.18
  Q 50.01 273.44 44.26 264.11
  Q 27.89 237.54 33.63 208.65
  Q 36.84 192.52 44.08 177.08
  C 56.54 150.52 79.89 129.72 107.05 119.52
  C 135.48 108.85 169.46 105.88 196.88 121.38
  Q 208.90 128.18 222.39 136.60
  Q 251.46 154.76 276.37 169.48
  A 0.39 0.39 0.0 0 0 276.95 169.25
  Z
  M 55.51 190.92
  Q 51.78 200.36 49.69 209.39
  Q 44.32 232.67 56.64 253.80
  Q 63.93 266.31 76.44 280.31
  Q 88.96 294.30 101.70 306.87
  A 1.26 1.23 -22.4 0 0 102.57 307.22
  Q 256.97 307.21 411.98 307.23
  Q 415.96 307.23 419.67 306.15
  C 445.34 298.62 468.52 280.96 463.15 250.94
  C 459.55 230.89 438.17 223.00 420.67 219.53
  Q 407.67 216.95 394.27 215.80
  Q 376.19 214.25 358.39 212.68
  Q 350.15 211.96 342.28 210.16
  C 314.06 203.70 285.90 194.22 261.15 179.10
  Q 234.15 162.61 207.08 146.16
  C 198.77 141.11 189.17 134.54 180.86 131.42
  C 158.90 123.16 134.76 126.39 113.23 134.28
  C 86.53 144.08 65.90 164.68 55.51 190.92
  Z
  M 398.49 362.12
  C 402.55 360.64 406.03 356.25 406.04 351.58
  Q 406.07 338.66 406.05 323.56
  A 0.34 0.34 0.0 0 0 405.71 323.22
  L 107.28 323.22
  Q 106.65 323.22 106.66 323.84
  Q 106.77 336.34 106.64 349.51
  C 106.59 354.97 108.54 359.41 113.46 361.83
  Q 116.16 363.15 119.92 363.14
  Q 256.38 362.74 392.78 363.15
  Q 395.65 363.16 398.49 362.12
  Z"
/>
<path fill="#000000" d="
  M 90.84 195.82
  Q 89.86 197.81 88.83 199.46
  C 86.70 202.89 81.60 203.63 78.29 201.56
  C 72.34 197.84 74.43 192.02 77.60 186.56
  Q 86.79 170.76 102.28 160.74
  C 116.85 151.31 133.64 145.69 150.97 144.95
  Q 155.24 144.76 157.56 146.45
  C 163.42 150.71 161.10 160.51 153.51 160.81
  Q 125.27 161.95 104.60 178.95
  Q 95.41 186.50 90.84 195.82
  Z"
/>
</svg>
